<svg id="baseline-build" xmlns="http://www.w3.org/2000/svg" width="15" height="15" viewBox="0 0 15 15">
  <path id="Path_178" data-name="Path 178" d="M0,0H15V15H0Z" fill="none"/>
  <path id="Path_179" data-name="Path 179" d="M13.365,11.272,8.172,6.1A3.636,3.636,0,0,0,7.316,2.18a3.784,3.784,0,0,0-4.223-.739L5.546,3.885l-1.712,1.7L1.323,3.146a3.651,3.651,0,0,0,.742,4.205A3.674,3.674,0,0,0,6,8.2L11.2,13.375a.553.553,0,0,0,.8,0l1.313-1.307A.511.511,0,0,0,13.365,11.272Z" transform="translate(0 0)"/>
</svg>
