<svg id="directions_run" xmlns="http://www.w3.org/2000/svg" width="16.198" height="21.052" viewBox="0 0 16.198 21.052">
  <path id="Path_1828" data-name="Path 1828" d="M0,0H16.2V21.052H0Z" fill="none"/>
  <path id="Path_1829" data-name="Path 1829" d="M12.188,4.989a1.754,1.754,0,1,0-1.754-1.754A1.759,1.759,0,0,0,12.188,4.989ZM9.03,17.181l.877-3.859,1.842,1.754v5.263H13.5V13.76l-1.842-1.754.526-2.631a6.423,6.423,0,0,0,4.824,2.193V9.813A4.315,4.315,0,0,1,13.24,7.708l-.877-1.4a1.809,1.809,0,0,0-1.491-.877c-.263,0-.439.088-.7.088L5.609,7.445v4.123H7.363V8.585l1.579-.614-1.4,7.1-4.3-.877L2.89,15.953Z" transform="translate(-0.814 -0.182)" fill="#b90404"/>
</svg>
