<svg id="dynamic_feed-24px" xmlns="http://www.w3.org/2000/svg" width="16.942" height="16" viewBox="0 0 16.942 16">
  <g id="Bounding_Box">
    <rect id="Rectangle_258" data-name="Rectangle 258" width="16.942" height="16" fill="none"/>
  </g>
  <g id="Flat" transform="translate(1.332 1.999)">
    <g id="Group_435" data-name="Group 435">
      <path id="Path_6343" data-name="Path 6343" d="M7.5,8H6v4.663A1.43,1.43,0,0,0,7.5,14H14.27V12.663H7.5Z" transform="translate(-3.335 -4.669)"/>
      <path id="Path_6344" data-name="Path 6344" d="M16.662,3h-5.33A1.336,1.336,0,0,0,10,4.332v4a1.336,1.336,0,0,0,1.332,1.332h5.33A1.336,1.336,0,0,0,17.994,8.33v-4A1.336,1.336,0,0,0,16.662,3Zm0,5.33h-5.33V5.665h5.33Z" transform="translate(-3.729 -3)"/>
      <path id="Path_6345" data-name="Path 6345" d="M3.332,12H2v4.663A1.336,1.336,0,0,0,3.332,18h6V16.663h-6Z" transform="translate(-2 -6.004)"/>
    </g>
  </g>
</svg>
