<svg id="outline-thumb_up-24px" xmlns="http://www.w3.org/2000/svg" width="19.73" height="19.73" viewBox="0 0 19.73 19.73">
  <g id="Bounding_Boxes">
    <path id="Path_2515" data-name="Path 2515" d="M0,0H19.73V19.73H0Z" fill="none"/>
    <path id="Path_2516" data-name="Path 2516" d="M0,0H19.73V19.73H0Z" fill="none"/>
  </g>
  <g id="Outline" transform="translate(1.061 0.822)">
    <g id="Group_115" data-name="Group 115" transform="translate(0)">
      <path id="Path_2517" data-name="Path 2517" d="M8.644,17.442h7.4a1.633,1.633,0,0,0,1.513-1l2.483-5.8a1.624,1.624,0,0,0,.115-.6V8.4a1.649,1.649,0,0,0-1.644-1.644H13.322L14.1,3l.025-.263a1.237,1.237,0,0,0-.362-.871L12.894,1,7.477,6.418A1.634,1.634,0,0,0,7,7.577V15.8A1.649,1.649,0,0,0,8.644,17.442ZM18.509,8.4v0Z" transform="translate(-2.306 -1)" fill="#218bb8"/>
      <rect id="Rectangle_65" data-name="Rectangle 65" width="2.361" height="10.624" transform="translate(0 5.882)" fill="#218bb8"/>
    </g>
  </g>
</svg>
