<svg id="Group_115" data-name="Group 115" xmlns="http://www.w3.org/2000/svg" width="17.847" height="16.505" viewBox="0 0 17.847 16.505">
  <path id="Path_2517" data-name="Path 2517" d="M8.644,17.442h7.4a1.633,1.633,0,0,0,1.513-1l2.483-5.8a1.624,1.624,0,0,0,.115-.6V8.4a1.649,1.649,0,0,0-1.644-1.644H13.322L14.1,3l.025-.263a1.237,1.237,0,0,0-.362-.871L12.894,1,7.477,6.418A1.634,1.634,0,0,0,7,7.577V15.8A1.649,1.649,0,0,0,8.644,17.442Zm0-9.865,3.568-3.568L11.11,8.4h7.4v1.644L16.043,15.8h-7.4Z" transform="translate(-2.306 -1)" fill="#218bb8"/>
  <rect id="Rectangle_65" data-name="Rectangle 65" width="2.361" height="10.624" transform="translate(0 5.882)" fill="#218bb8"/>
</svg>
