<svg xmlns="http://www.w3.org/2000/svg" width="24.066" height="24.066" viewBox="0 0 24.066 24.066">
  <path id="offers" d="M2.164,5.629a3.513,3.513,0,0,1,3.53-3.49h4.555V0H5.694A5.664,5.664,0,0,0,0,5.629a5.664,5.664,0,0,0,5.694,5.629h4.555V9.119H5.694A3.513,3.513,0,0,1,2.164,5.629ZM6.833,6.755h9.11V4.5H6.833ZM17.082,0H12.527V2.139h4.555a3.49,3.49,0,1,1,0,6.98H12.527v2.139h4.555a5.664,5.664,0,0,0,5.694-5.629A5.664,5.664,0,0,0,17.082,0Z" transform="translate(7.961 0) rotate(45)" fill="#218bb8"/>
</svg>
